<svg width="24" height="24" viewBox="0 0 24 24" fill="none" xmlns="http://www.w3.org/2000/svg">
<mask id="mask0_260_104" style="mask-type:alpha" maskUnits="userSpaceOnUse" x="0" y="0" width="24" height="24">
<rect width="24" height="24" fill="#D9D9D9"/>
</mask>
<g mask="url(#mask0_260_104)">
<path d="M2.5 22C2.35 22 2.22917 21.9542 2.1375 21.8625C2.04583 21.7708 2 21.65 2 21.5V20H16V21.5C16 21.65 15.9542 21.7708 15.8625 21.8625C15.7708 21.9542 15.65 22 15.5 22H2.5ZM2 18V16.5C2 16.35 2.04583 16.2292 2.1375 16.1375C2.22917 16.0458 2.35 16 2.5 16H7V14H11V16H15.5C15.65 16 15.7708 16.0458 15.8625 16.1375C15.9542 16.2292 16 16.35 16 16.5V18H2ZM18 22V15.9C17.4 15.2167 16.9167 14.5417 16.55 13.875C16.1833 13.2083 16 12.4 16 11.45V2H22V11.45C22 12.4 21.8208 13.2125 21.4625 13.8875C21.1042 14.5625 20.6167 15.2333 20 15.9V20H22V22H18ZM18 8H20V4H18V8ZM19 14.05C19.3 13.7 19.5417 13.3 19.725 12.85C19.9083 12.4 20 11.9333 20 11.45V10H18V11.45C18 11.9333 18.0833 12.4 18.25 12.85C18.4167 13.3 18.6667 13.7 19 14.05Z" fill="#A1A7B0"/>
</g>
</svg>
