<svg width="22" height="22" viewBox="0 0 22 22" fill="none" xmlns="http://www.w3.org/2000/svg">
<g id="Bed">
<path id="Vector" d="M1.83325 17.4166V11.9166C1.83325 11.5041 1.91728 11.1298 2.08534 10.7937C2.25339 10.4576 2.47492 10.1596 2.74992 9.89992V7.33325C2.74992 6.56936 3.01728 5.92006 3.552 5.38534C4.08672 4.85061 4.73603 4.58325 5.49992 4.58325H9.16659C9.51797 4.58325 9.84645 4.64834 10.152 4.7785C10.4576 4.90806 10.7402 5.08742 10.9999 5.31659C11.2596 5.08742 11.5423 4.90806 11.8478 4.7785C12.1534 4.64834 12.4819 4.58325 12.8333 4.58325H16.4999C17.2638 4.58325 17.9131 4.85061 18.4478 5.38534C18.9826 5.92006 19.2499 6.56936 19.2499 7.33325V9.89992C19.5249 10.1596 19.7464 10.4576 19.9145 10.7937C20.0826 11.1298 20.1666 11.5041 20.1666 11.9166V17.4166H18.3333V15.5833H3.66659V17.4166H1.83325ZM11.9166 9.16658H17.4166V7.33325C17.4166 7.07353 17.3286 6.85567 17.1526 6.67967C16.9772 6.50428 16.7596 6.41659 16.4999 6.41659H12.8333C12.5735 6.41659 12.356 6.50428 12.1806 6.67967C12.0046 6.85567 11.9166 7.07353 11.9166 7.33325V9.16658ZM4.58325 9.16658H10.0833V7.33325C10.0833 7.07353 9.99556 6.85567 9.82017 6.67967C9.64417 6.50428 9.42631 6.41659 9.16659 6.41659H5.49992C5.2402 6.41659 5.02234 6.50428 4.84634 6.67967C4.67095 6.85567 4.58325 7.07353 4.58325 7.33325V9.16658Z" fill="#A1A7B0"/>
</g>
</svg>
